<svg width="91" height="91" fill="none" xmlns="http://www.w3.org/2000/svg"><mask id="a" style="mask-type:alpha" maskUnits="userSpaceOnUse" x="0" y="0" width="91" height="91"><path fill="#D9D9D9" d="M0 0h91v91H0z"/></mask><g mask="url(#a)"><path d="M68.01 84.49c21.534-12.433 28.912-39.967 16.48-61.5C72.057 1.455 44.523-5.923 22.99 6.51 1.456 18.943-5.922 46.477 6.51 68.01c12.433 21.534 39.967 28.912 61.5 16.48z" fill="url(#paint0_linear_302_134)"/><path d="M71.506 32.625v-.066c-.604-2.446-2.18-4.973-4.246-7.102-2.415-2.496-5.49-4.456-8.427-5.09h-.061a70.44 70.44 0 00-26.511 0h-.062c-5.453 1.182-11.373 6.881-12.693 12.192v.066a51.955 51.955 0 000 22.352v.061c.942 3.786 4.216 7.767 7.992 10.171a15.352 15.352 0 003.985 1.847v5.924a2.385 2.385 0 004.093 1.653l6.006-6.242c1.3.072 2.61.113 3.909.113a70.676 70.676 0 0013.255-1.259h.062C64.246 66.058 70.17 60.36 71.48 55.05v-.062a51.953 51.953 0 00.026-22.362zm-4.753 21.257c-.88 3.464-5.372 7.776-8.948 8.57a65.737 65.737 0 01-14.1 1.15.301.301 0 00-.245.103l-4.385 4.502-4.666 4.784a.543.543 0 01-.936-.374v-9.823a.337.337 0 00-.276-.332 8.67 8.67 0 01-2.139-.819c-3.039-1.622-6.103-4.947-6.81-7.76a47.067 47.067 0 010-20.204c.876-3.448 5.393-7.75 8.944-8.549a65.486 65.486 0 0124.613 0c1.97.44 4.22 1.939 5.98 3.78 1.449 1.5 2.559 3.229 2.968 4.784a47.065 47.065 0 010 20.188z" fill="#fff"/><path d="M57.932 54.394a7.587 7.587 0 01-3.254 3.58 7.784 7.784 0 01-1.406.446c-.548-.164-1.07-.276-1.535-.476a38.814 38.814 0 01-10.693-6.288 26.93 26.93 0 01-2.675-2.624 34.69 34.69 0 01-5.117-7.807c-.654-1.335-1.207-2.717-1.77-4.093-.511-1.253.246-2.558 1.023-3.494a8.187 8.187 0 012.748-2.047 1.77 1.77 0 012.205.512 28.572 28.572 0 013.438 4.773 2.272 2.272 0 01-.64 3.07 7.785 7.785 0 00-.731.583c-.217.16-.404.358-.553.583a1.601 1.601 0 00-.123 1.417c.988 2.717 2.487 4.983 4.728 6.575a12.22 12.22 0 002.435 1.335 3.71 3.71 0 001.831.45c1.116-.133 1.484-1.366 2.262-2a2.144 2.144 0 012.558-.118c.829.512 1.627 1.09 2.425 1.652.79.54 1.55 1.12 2.276 1.74a1.8 1.8 0 01.568 2.23zM46.97 29.878h-.655c.21-.01.43 0 .655 0z" fill="#fff"/><path d="M58.292 45.21c-.512 0-.763-.435-.798-.91-.067-.937-.118-1.878-.246-2.81a11.379 11.379 0 00-1.606-4.425 11.766 11.766 0 00-7.88-5.412c-.736-.133-1.488-.164-2.23-.24-.47-.052-1.09-.083-1.192-.666a.803.803 0 01.793-.91 2.84 2.84 0 01.369 0 13.597 13.597 0 0111.255 6.139 13.45 13.45 0 011.934 4.957c.194 1.105.266 2.24.353 3.366a.788.788 0 01-.752.911z" fill="#fff"/><path d="M55.523 42.821a1.955 1.955 0 01-.06.45.752.752 0 01-1.413.077 2.202 2.202 0 01-.077-.634 8.241 8.241 0 00-.665-3.33 7.637 7.637 0 00-.343-.676 7.449 7.449 0 00-3.125-2.932 9.208 9.208 0 00-2.487-.767c-.378-.061-.757-.097-1.136-.148a.721.721 0 01-.68-.804.71.71 0 01.793-.706 10.36 10.36 0 014.313 1.126 8.697 8.697 0 013.811 3.765c.475.95.793 1.969.942 3.019.027.137.048.275.061.414.026.307.036.614.061.993 0 .035.005.082.005.153z" fill="#fff"/><path d="M52.018 42.116a.665.665 0 01-.542.511h-.113a.772.772 0 01-.777-.511 1.023 1.023 0 01-.062-.261 7.302 7.302 0 00-.153-1.023 2.972 2.972 0 00-1.095-1.714 2.896 2.896 0 00-.885-.43c-.404-.118-.829-.087-1.228-.184a.757.757 0 01-.614-.875.793.793 0 01.834-.634c2.343.169 4.093 1.294 4.543 3.806.046.233.079.469.097.706a2.05 2.05 0 01-.005.609z" fill="#fff"/></g><defs><linearGradient id="paint0_linear_302_134" x1="22.989" y1="6.51" x2="68.011" y2="84.489" gradientUnits="userSpaceOnUse"><stop stop-color="#7842BB"/><stop offset=".292" stop-color="#884DD2"/><stop offset=".505" stop-color="#9253E0"/><stop offset=".766" stop-color="#753CBC"/><stop offset="1" stop-color="#52208F"/></linearGradient></defs></svg>