<svg width="91" height="91" viewBox="0 0 91 91" fill="none" xmlns="http://www.w3.org/2000/svg">
<mask id="mask0_302_134" style="mask-type:alpha" maskUnits="userSpaceOnUse" x="0" y="0" width="91" height="91">
<rect width="91" height="91" fill="#D9D9D9"/>
</mask>
<g mask="url(#mask0_302_134)">
<path d="M68.0107 84.4894C89.544 72.0571 96.9219 44.5226 84.4896 22.9893C72.0573 1.45599 44.5228 -5.92186 22.9895 6.5104C1.45619 18.9427 -5.92166 46.4772 6.5106 68.0105C18.9429 89.5438 46.4774 96.9217 68.0107 84.4894Z" fill="url(#paint0_linear_302_134)"/>
<path d="M71.5058 32.625V32.5585C70.9021 30.113 69.3264 27.5857 67.2595 25.4574C64.8447 22.9608 61.77 21.0013 58.8334 20.3669H58.772C50.0145 18.6889 41.0181 18.6889 32.2606 20.3669H32.1993C26.7455 21.5487 20.8263 27.248 19.5063 32.5585V32.625C17.8846 39.9874 17.8846 47.6146 19.5063 54.977V55.0384C20.4477 58.8242 23.722 62.8045 27.4976 65.2091C28.7307 66.0126 30.0729 66.6346 31.483 67.056V72.9803C31.485 73.4538 31.6279 73.9159 31.8935 74.3079C32.1592 74.6998 32.5355 75.0038 32.9745 75.181C33.4135 75.3583 33.8954 75.4008 34.3587 75.3032C34.822 75.2055 35.2457 74.9722 35.5758 74.6328L41.5821 68.3913C42.8816 68.4629 44.1913 68.5038 45.4907 68.5038C49.9391 68.5024 54.3773 68.081 58.7464 67.2453H58.8078C64.2462 66.0583 70.1705 60.3591 71.4802 55.0486V54.9872C73.1119 47.6234 73.1206 39.9925 71.5058 32.625ZM66.753 53.8821C65.8731 57.3457 61.3812 61.6585 57.8051 62.4515C53.1602 63.3413 48.4329 63.7272 43.7052 63.6026C43.6592 63.5998 43.6131 63.6075 43.5706 63.6253C43.528 63.643 43.4901 63.6703 43.4597 63.705L39.0752 68.2071L34.4094 72.9906C34.3347 73.0695 34.2381 73.1241 34.1321 73.1475C34.026 73.1708 33.9154 73.1618 33.8145 73.1216C33.7136 73.0813 33.6272 73.0117 33.5663 72.9218C33.5054 72.8319 33.473 72.7257 33.4731 72.6171V62.7943C33.4733 62.7153 33.4457 62.6388 33.3952 62.578C33.3447 62.5173 33.2746 62.4761 33.1969 62.4618C32.451 62.2847 31.7319 62.0094 31.0584 61.6432C28.0194 60.0214 24.9549 56.696 24.2489 53.8821C22.7865 47.2271 22.7865 40.3339 24.2489 33.6789C25.1238 30.2307 29.6412 25.9281 33.1918 25.13C41.3224 23.5743 49.6744 23.5743 57.8051 25.13C59.7747 25.57 62.0258 27.069 63.7857 28.9107C65.2336 30.4097 66.3437 32.139 66.753 33.6942C68.2132 40.3443 68.2132 47.232 66.753 53.8821Z" fill="white"/>
<path d="M57.9323 54.3936C57.2676 55.9104 56.1248 57.1682 54.6784 57.9748C54.2246 58.1674 53.7535 58.3164 53.2715 58.4199C52.7241 58.2562 52.2023 58.1436 51.7367 57.9441C47.8585 56.435 44.2483 54.312 41.0442 51.6565C40.0924 50.8448 39.1984 49.9679 38.3685 49.0319C36.3192 46.672 34.5983 44.0458 33.2524 41.2249C32.5976 39.8896 32.0451 38.5082 31.4823 37.132C30.9707 35.8786 31.7279 34.574 32.5055 33.6378C33.2667 32.7695 34.203 32.0721 35.2528 31.5913C35.6223 31.4057 36.045 31.3552 36.4478 31.4486C36.8506 31.5421 37.2079 31.7736 37.4578 32.1029C38.765 33.5715 39.9171 35.1711 40.8958 36.8762C41.2041 37.372 41.3097 37.9675 41.1906 38.5391C41.0716 39.1106 40.737 39.6144 40.2563 39.9458C40.0005 40.1249 39.7447 40.3296 39.5247 40.5291C39.3079 40.6897 39.1208 40.8871 38.9722 41.1123C38.8439 41.3231 38.7661 41.5607 38.7448 41.8065C38.7235 42.0523 38.7593 42.2997 38.8494 42.5294C39.8368 45.2461 41.3358 47.5125 43.5766 49.1036C44.335 49.6398 45.152 50.0878 46.0119 50.4389C46.5734 50.7442 47.2043 50.8993 47.8434 50.8891C48.9587 50.7561 49.3271 49.5231 50.1047 48.8887C50.4617 48.5964 50.9034 48.4271 51.3642 48.4059C51.8251 48.3847 52.2805 48.5128 52.6627 48.771C53.4915 49.2826 54.2896 49.8607 55.0877 50.4235C55.8771 50.9623 56.6371 51.5429 57.3644 52.163C57.7045 52.41 57.9475 52.7683 58.0512 53.1757C58.1549 53.5831 58.1128 54.0139 57.9323 54.3936Z" fill="white"/>
<path d="M46.9703 29.8781H46.3154C46.5252 29.8679 46.7452 29.8781 46.9703 29.8781Z" fill="white"/>
<path d="M58.2917 45.2101C57.7801 45.2101 57.5294 44.7752 57.4936 44.2994C57.4271 43.3632 57.3759 42.4218 57.248 41.4907C57.0269 39.9197 56.4797 38.4123 55.6416 37.0653C54.7801 35.6621 53.6338 34.4552 52.2766 33.5229C50.9195 32.5905 49.3817 31.9533 47.7629 31.6526C47.0261 31.5195 46.2741 31.4888 45.5323 31.4121C45.0616 31.3609 44.4425 31.3302 44.3402 30.747C44.3249 30.6337 44.334 30.5185 44.3668 30.409C44.3996 30.2995 44.4554 30.1983 44.5305 30.1121C44.6055 30.0259 44.6981 29.9567 44.8021 29.9092C44.906 29.8616 45.0189 29.8368 45.1332 29.8364C45.2559 29.8293 45.3789 29.8293 45.5016 29.8364C47.7378 29.8553 49.9349 30.4254 51.8981 31.4963C53.8614 32.5672 55.5303 34.1057 56.7569 35.9756C57.7252 37.4828 58.3827 39.1683 58.6907 40.9331C58.8851 42.0381 58.9568 43.1739 59.0437 44.2994C59.0612 44.4097 59.055 44.5225 59.0256 44.6302C58.9962 44.738 58.9442 44.8382 58.8731 44.9243C58.8019 45.0104 58.7133 45.0805 58.6131 45.1297C58.5129 45.179 58.4033 45.2064 58.2917 45.2101Z" fill="white"/>
<path d="M55.5235 42.8212C55.5206 42.9732 55.5 43.1242 55.4621 43.2714C55.4174 43.4193 55.3283 43.5499 55.2068 43.6453C55.0853 43.7408 54.9373 43.7965 54.783 43.8049C54.6287 43.8133 54.4756 43.7739 54.3445 43.6922C54.2133 43.6105 54.1105 43.4904 54.0501 43.3482C53.9938 43.1416 53.9679 42.9278 53.9733 42.7138C53.9853 41.5695 53.7588 40.4352 53.3083 39.3832C53.2059 39.1581 53.0934 38.9279 52.9655 38.7079C52.2332 37.4456 51.1462 36.4263 49.8396 35.7764C49.0513 35.4042 48.2141 35.1458 47.3532 35.009C46.9746 34.9476 46.596 34.9118 46.2174 34.8606C46.1189 34.8557 46.0224 34.8306 45.9339 34.7869C45.8455 34.7431 45.767 34.6817 45.7032 34.6065C45.6394 34.5312 45.5917 34.4436 45.5632 34.3492C45.5346 34.2547 45.5257 34.1554 45.537 34.0574C45.537 33.9572 45.5583 33.858 45.5994 33.7666C45.6404 33.6751 45.7004 33.5934 45.7752 33.5267C45.8501 33.46 45.9383 33.4099 46.0339 33.3797C46.1295 33.3495 46.2304 33.3399 46.33 33.3514C47.8322 33.4094 49.3038 33.7934 50.6428 34.4769C52.2779 35.2997 53.6117 36.6174 54.4543 38.2423C54.9288 39.1911 55.2467 40.2105 55.3956 41.2608C55.4232 41.3978 55.4437 41.5361 55.457 41.6752C55.4826 41.9822 55.4928 42.2891 55.5184 42.6677C55.5184 42.7035 55.5235 42.7496 55.5235 42.8212Z" fill="white"/>
<path d="M52.0183 42.1159C51.9893 42.2456 51.9222 42.3636 51.8255 42.4548C51.7289 42.546 51.6071 42.6061 51.476 42.6275H51.3634C51.1958 42.6383 51.0292 42.5943 50.8889 42.5019C50.7486 42.4096 50.6421 42.2741 50.5858 42.1159C50.554 42.032 50.5333 41.9442 50.5244 41.8549C50.4975 41.5107 50.4462 41.1687 50.3709 40.8317C50.2188 40.1495 49.8312 39.5426 49.2761 39.1179C49.0077 38.9252 48.7084 38.7798 48.391 38.6881C47.9868 38.5704 47.5622 38.6011 47.1631 38.5039C46.9659 38.469 46.7905 38.3573 46.6755 38.1933C46.5604 38.0293 46.515 37.8265 46.5492 37.6291C46.5873 37.44 46.693 37.2713 46.8465 37.1545C47 37.0378 47.1908 36.9809 47.3831 36.9947C49.7263 37.1635 51.476 38.2891 51.9262 40.801C51.9725 41.0342 52.0049 41.27 52.0234 41.507C52.052 41.7091 52.0503 41.9143 52.0183 42.1159Z" fill="white"/>
</g>
<defs>
<linearGradient id="paint0_linear_302_134" x1="22.9895" y1="6.5104" x2="68.0107" y2="84.4894" gradientUnits="userSpaceOnUse">
<stop stop-color="#7842BB"/>
<stop offset="0.291667" stop-color="#884DD2"/>
<stop offset="0.505208" stop-color="#9253E0"/>
<stop offset="0.765625" stop-color="#753CBC"/>
<stop offset="1" stop-color="#52208F"/>
</linearGradient>
</defs>
</svg>
