<svg width="102" height="38" fill="none" xmlns="http://www.w3.org/2000/svg"><g clip-path="url(#clip0_124_4191)" fill="#1F9CB3"><path d="M25.266 28.17a39.97 39.97 0 00-8.856-9.28c-.424-.329-1.104-.302-1.5.11a1.068 1.068 0 00-.056 1.456c3.622 4.255 6.225 9.088 7.668 14.414.141.467.566.796 1.075.796h.113c.566-.054.962-.494.99-1.015a37.36 37.36 0 01.708-5.629 1.002 1.002 0 00-.142-.851z"/><path d="M49.09.741C48.92.357 48.496.11 48.071.11c-.141 0-.282.027-.424.082a40.83 40.83 0 00-7.102 3.597c-.48.302-.962.632-1.415.934-8.233 5.766-13.864 14.222-15.873 23.832a41.878 41.878 0 00-.764 5.958v.055c0 .082 0 .192.029.275.113.384.198.768.31 1.18.057.275.255.522.51.687l.085.055c.085.054.17.082.255.11l2.546.768c.113.028.226.055.34.055.254 0 .48-.082.679-.22.283-.22.452-.549.452-.878v-.906c0-.989.029-2.005.114-2.993.82-10.022 5.602-19.165 13.496-25.727.368-.302.764-.631 1.16-.933l.028-.028A39.776 39.776 0 0148.61 2.17c.51-.302.736-.906.481-1.428zM3.734 29.186c-.452 0-.905-.247-1.132-.659A19.133 19.133 0 01.367 19.55C.367 8.786 9.421 0 20.513 0c2.575 0 5.093.467 7.498 1.4.65.247.962.961.707 1.593-.254.631-.99.933-1.64.686a18.4 18.4 0 00-6.565-1.208c-9.705 0-17.6 7.66-17.6 17.078 0 2.746.651 5.382 1.953 7.825a1.242 1.242 0 01-.538 1.675 1.558 1.558 0 01-.594.137zm39.585-8.703h-.453c.085 0 .142-.028.227-.028.084 0 .17 0 .226.028zm47.845 10.598c0-.11 0-.22-.028-.302-.17-1.565-.736-2.855-1.698-3.926-1.16-1.263-2.688-1.922-4.583-1.922-1.868 0-3.424.631-4.67 1.894-1.244 1.263-1.838 2.8-1.838 4.64 0 1.95.622 3.515 1.896 4.723C81.516 37.396 83.128 38 85.08 38c1.697 0 3.14-.357 4.3-1.126.312-.192.51-.521.51-.906a1.41 1.41 0 00-.113-.494l-.17-.247a1.129 1.129 0 00-1.245-.274c-.085.054-.198.11-.31.164-.228.11-.426.22-.68.302a5.6 5.6 0 01-1.981.357c-1.16 0-2.122-.33-2.83-.988-.735-.66-1.131-1.483-1.244-2.444h8.544c.68 0 1.274-.577 1.302-1.263zm-9.931-.659a3.792 3.792 0 011.047-2.306c.622-.66 1.471-.989 2.575-.989 1.16 0 2.037.33 2.63 1.016.624.66.935 1.428.963 2.307h-7.215v-.028zM77.44 26.55c0 .083 0 .193-.027.275v.028l-.057.192v.027l-2.886 8.979-.141.467c-.312.686-1.02 1.153-1.84 1.153-.764 0-1.443-.412-1.782-1.016l-.227-.687-2.405-7.413-2.461 7.523-.17.44c-.311.686-1.019 1.153-1.84 1.153a2.047 2.047 0 01-1.782-1.016l-.226-.714-2.83-8.841-.084-.275c-.029-.082-.029-.164-.029-.274 0-.741.623-1.345 1.387-1.345.594 0 1.075.356 1.273.85l.085.248 2.207 7.413.17.55.17-.523 2.433-7.22.141-.413c.227-.494.736-.85 1.302-.933h.453c.565.082 1.075.44 1.301.933l.141.412 2.434 7.222.17.521.17-.549 2.206-7.386.085-.302c.198-.494.708-.823 1.273-.823.764 0 1.387.604 1.387 1.345z"/><path d="M61.37 26.303l-.085-.247a.435.435 0 01.085.247zm13.326.028c0-.11.058-.192.085-.302l-.085.302zm-8.176-.192l-.142.412c.028-.165.085-.275.141-.412zm1.754-.933h-.453c.085 0 .142-.028.227-.028a.64.64 0 00.226.027zm1.443 1.344l-.142-.411c.057.137.113.247.142.412zm-12.845-4.722v9.06c0 2.197-.651 3.927-1.953 5.218-1.301 1.263-3.197 1.922-5.715 1.922s-4.414-.632-5.716-1.922c-1.301-1.263-1.952-2.993-1.952-5.19v-9.143c.085-.686.65-1.208 1.358-1.318h.453c.707.083 1.273.632 1.358 1.318v9.006c0 1.4.396 2.499 1.188 3.295.793.824 1.925 1.208 3.367 1.208 1.444 0 2.575-.412 3.34-1.208.791-.796 1.16-1.922 1.16-3.295v-8.95c.084-.715.65-1.264 1.386-1.346h.368c.707.055 1.273.631 1.358 1.345zm37.716-1.373c-.736 0-1.358.55-1.387 1.263v14.635a1.375 1.375 0 001.387 1.263c.735 0 1.358-.55 1.386-1.263V21.718c-.028-.686-.65-1.263-1.386-1.263z"/></g><defs><clipPath id="clip0_124_4191"><path fill="#fff" d="M0 0h102v38H0z"/></clipPath></defs></svg>