<svg viewBox="0 0 24 24"  xmlns="http://www.w3.org/2000/svg" style="display:none">

	<symbol viewBox="0 0 30 30" id="arrow-next">
		<path d="M16.4062 5.87505L24.6562 14.125C24.7812 14.25 24.87 14.3855 24.9225 14.5313C24.975 14.6771 25.0008 14.8334 25 15C25 15.1667 24.9737 15.323 24.9212 15.4688C24.8687 15.6146 24.7804 15.75 24.6562 15.875L16.4062 24.125C16.1771 24.3542 15.8904 24.4738 15.5462 24.4838C15.2021 24.4938 14.9054 24.3742 14.6562 24.125C14.4062 23.8959 14.2758 23.6092 14.265 23.265C14.2541 22.9209 14.3741 22.6242 14.625 22.375L20.75 16.25L6.78123 16.25C6.42706 16.25 6.12998 16.13 5.88998 15.89C5.64998 15.65 5.5304 15.3534 5.53123 15C5.53123 14.6459 5.65081 14.3488 5.88998 14.1088C6.12915 13.8688 6.42623 13.7492 6.78123 13.75L20.75 13.75L14.625 7.62504C14.3958 7.39588 14.2758 7.10421 14.265 6.75004C14.2541 6.39588 14.3741 6.10421 14.625 5.87505C14.8541 5.62505 15.1458 5.50004 15.5 5.50004C15.8541 5.50004 16.1562 5.62505 16.4062 5.87505Z"/>
	</symbol>

	<symbol viewBox="0 0 30 30" id="slider-arrow-prev">
		<path d="M18.9063 26.375L8.37502 15.875C8.25002 15.75 8.16127 15.6146 8.10877 15.4688C8.05627 15.3229 8.03044 15.1667 8.03127 15C8.03127 14.8333 8.0571 14.6771 8.10877 14.5312C8.16044 14.3854 8.24919 14.25 8.37502 14.125L18.9063 3.59375C19.1979 3.30208 19.5625 3.15625 20 3.15625C20.4375 3.15625 20.8125 3.3125 21.125 3.625C21.4375 3.9375 21.5938 4.30208 21.5938 4.71875C21.5938 5.13542 21.4375 5.5 21.125 5.8125L11.9375 15L21.125 24.1875C21.4167 24.4792 21.5625 24.8387 21.5625 25.2663C21.5625 25.6938 21.4063 26.0633 21.0938 26.375C20.7813 26.6875 20.4167 26.8438 20 26.8438C19.5834 26.8438 19.2188 26.6875 18.9063 26.375Z"/>
	</symbol>

	<symbol viewBox="0 0 30 30" id="slider-arrow-next">
		<path d="M11.0937 26.375L21.625 15.875C21.75 15.75 21.8387 15.6146 21.8912 15.4688C21.9437 15.3229 21.9696 15.1667 21.9687 15C21.9687 14.8333 21.9429 14.6771 21.8912 14.5312C21.8396 14.3854 21.7508 14.25 21.625 14.125L11.0937 3.59375C10.8021 3.30208 10.4375 3.15625 9.99998 3.15625C9.56248 3.15625 9.18748 3.3125 8.87498 3.625C8.56248 3.9375 8.40623 4.30208 8.40623 4.71875C8.40623 5.13542 8.56248 5.5 8.87498 5.8125L18.0625 15L8.87498 24.1875C8.58332 24.4792 8.43748 24.8387 8.43748 25.2663C8.43748 25.6938 8.59373 26.0633 8.90623 26.375C9.21873 26.6875 9.58332 26.8438 9.99998 26.8438C10.4166 26.8438 10.7812 26.6875 11.0937 26.375Z"/>
	</symbol>

	<symbol viewBox="0 0 30 30" id="quote">
		<path d="M10.1982 5.31668C10.3685 5.19192 10.5623 5.10114 10.7685 5.04954C10.9747 4.99793 11.1893 4.98651 11.4 5.01591C11.6107 5.04532 11.8135 5.11498 11.9966 5.22092C12.1798 5.32687 12.3398 5.46701 12.4675 5.63336C12.5952 5.79971 12.6881 5.989 12.741 6.19043C12.7938 6.39186 12.8055 6.60148 12.7754 6.80733C12.7453 7.01317 12.674 7.21121 12.5655 7.39013C12.4571 7.56905 12.3136 7.72536 12.1433 7.85012C9.60821 9.70745 8.15587 11.5141 7.32435 13.0912C8.46607 12.8041 9.67099 12.8716 10.7716 13.2843C11.8723 13.697 12.814 14.4344 13.4658 15.394C14.1176 16.3536 14.4472 17.4878 14.4088 18.6388C14.3703 19.7899 13.9658 20.9006 13.2513 21.8167C12.5368 22.7328 11.5479 23.4086 10.4221 23.7504C9.29622 24.0921 8.08936 24.0828 6.96922 23.7236C5.84909 23.3644 4.87133 22.6732 4.17185 21.7462C3.47237 20.8191 3.08592 19.7022 3.06621 18.5507C2.85851 16.6062 3.14121 14.6416 3.88963 12.8283C4.85732 10.4437 6.74892 7.84378 10.1982 5.31668ZM24.7864 5.31668C24.9567 5.19192 25.1505 5.10114 25.3567 5.04954C25.5629 4.99793 25.7775 4.98651 25.9882 5.01591C26.1989 5.04532 26.4016 5.11498 26.5848 5.22092C26.768 5.32687 26.928 5.46701 27.0557 5.63336C27.1834 5.79971 27.2763 5.989 27.3292 6.19043C27.382 6.39186 27.3937 6.60148 27.3636 6.80733C27.3335 7.01317 27.2622 7.21121 27.1537 7.39013C27.0453 7.56905 26.9018 7.72536 26.7315 7.85012C24.1964 9.70745 22.7441 11.5141 21.9125 13.0912C23.0543 12.8041 24.2592 12.8716 25.3598 13.2843C26.4605 13.697 27.4022 14.4344 28.054 15.394C28.7058 16.3536 29.0354 17.4878 28.997 18.6388C28.9585 19.7899 28.554 20.9006 27.8395 21.8167C27.125 22.7328 26.1361 23.4086 25.0103 23.7504C23.8844 24.0921 22.6776 24.0828 21.5574 23.7236C20.4373 23.3644 19.4595 22.6732 18.76 21.7462C18.0606 20.8191 17.6741 19.7022 17.6544 18.5507C17.4467 16.6062 17.7294 14.6416 18.4778 12.8283C19.4471 10.4437 21.3371 7.84378 24.7864 5.31668Z"/>
	</symbol>

	<symbol viewBox="0 0 21 22" id="facebook">
		<path d="M17.7188 2.17188H3.28125C2.75911 2.17188 2.25835 2.3793 1.88913 2.74851C1.51992 3.11772 1.3125 3.61848 1.3125 4.14062L1.3125 18.5781C1.3125 19.1003 1.51992 19.601 1.88913 19.9702C2.25835 20.3395 2.75911 20.5469 3.28125 20.5469H8.91064V14.2998H6.32666V11.3594H8.91064V9.11828C8.91064 6.56916 10.4282 5.16109 12.7526 5.16109C13.8657 5.16109 15.0298 5.35961 15.0298 5.35961V7.86156H13.7472C12.4835 7.86156 12.0894 8.64578 12.0894 9.4501V11.3594H14.9104L14.4592 14.2998H12.0894V20.5469H17.7188C18.2409 20.5469 18.7417 20.3395 19.1109 19.9702C19.4801 19.601 19.6875 19.1003 19.6875 18.5781V4.14062C19.6875 3.61848 19.4801 3.11772 19.1109 2.74851C18.7417 2.3793 18.2409 2.17188 17.7188 2.17188Z"/>
	</symbol>

	<symbol viewBox="0 0 19 19" id="instagram">
		<path d="M9.50327 4.64255C6.89468 4.64255 4.79058 6.74665 4.79058 9.35525C4.79058 11.9638 6.89468 14.0679 9.50327 14.0679C12.1119 14.0679 14.216 11.9638 14.216 9.35525C14.216 6.74665 12.1119 4.64255 9.50327 4.64255ZM9.50327 12.4191C7.81753 12.4191 6.4394 11.0451 6.4394 9.35525C6.4394 7.6654 7.81343 6.29138 9.50327 6.29138C11.1931 6.29138 12.5671 7.6654 12.5671 9.35525C12.5671 11.0451 11.189 12.4191 9.50327 12.4191ZM15.508 4.44978C15.508 5.06091 15.0158 5.549 14.4087 5.549C13.7976 5.549 13.3095 5.05681 13.3095 4.44978C13.3095 3.84275 13.8017 3.35056 14.4087 3.35056C15.0158 3.35056 15.508 3.84275 15.508 4.44978ZM18.6292 5.5654C18.5595 4.09294 18.2232 2.78865 17.1445 1.71404C16.0699 0.639429 14.7656 0.303101 13.2931 0.229272C11.7755 0.14314 7.2269 0.14314 5.70933 0.229272C4.24097 0.298999 2.93667 0.635327 1.85796 1.70994C0.779248 2.78455 0.447021 4.08884 0.373193 5.5613C0.287061 7.07888 0.287061 11.6275 0.373193 13.1451C0.44292 14.6176 0.779248 15.9218 1.85796 16.9965C2.93667 18.0711 4.23687 18.4074 5.70933 18.4812C7.2269 18.5674 11.7755 18.5674 13.2931 18.4812C14.7656 18.4115 16.0699 18.0752 17.1445 16.9965C18.2191 15.9218 18.5554 14.6176 18.6292 13.1451C18.7154 11.6275 18.7154 7.08298 18.6292 5.5654ZM16.6687 14.7734C16.3488 15.5773 15.7294 16.1967 14.9214 16.5207C13.7115 17.0006 10.8404 16.8898 9.50327 16.8898C8.16616 16.8898 5.29097 16.9965 4.08511 16.5207C3.2812 16.2008 2.66187 15.5814 2.33784 14.7734C1.85796 13.5635 1.9687 10.6924 1.9687 9.35525C1.9687 8.01814 1.86206 5.14294 2.33784 3.93708C2.65776 3.13318 3.2771 2.51384 4.08511 2.18982C5.29507 1.70994 8.16616 1.82068 9.50327 1.82068C10.8404 1.82068 13.7156 1.71404 14.9214 2.18982C15.7253 2.50974 16.3447 3.12908 16.6687 3.93708C17.1486 5.14705 17.0378 8.01814 17.0378 9.35525C17.0378 10.6924 17.1486 13.5676 16.6687 14.7734Z"/>
	</symbol>

	<symbol viewBox="0 0 21 22" id="linkedIn">
		<path d="M5.42555 19.2343H1.61602V6.96656H5.42555V19.2343ZM3.51873 5.29312C2.30057 5.29312 1.3125 4.28414 1.3125 3.06597C1.3125 2.48084 1.54494 1.91968 1.95869 1.50593C2.37244 1.09218 2.9336 0.859741 3.51873 0.859741C4.10386 0.859741 4.66502 1.09218 5.07877 1.50593C5.49252 1.91968 5.72496 2.48084 5.72496 3.06597C5.72496 4.28414 4.73648 5.29312 3.51873 5.29312ZM19.6834 19.2343H15.8821V13.2625C15.8821 11.8392 15.8534 10.014 13.9014 10.014C11.9208 10.014 11.6173 11.5603 11.6173 13.1599V19.2343H7.81184V6.96656H11.4655V8.64H11.5188C12.0274 7.67613 13.2698 6.65894 15.1233 6.65894C18.9788 6.65894 19.6875 9.19781 19.6875 12.4955V19.2343H19.6834Z"/>
	</symbol>
		
</svg>