<svg width="102" height="38" viewBox="0 0 102 38" fill="none" xmlns="http://www.w3.org/2000/svg">
<g clip-path="url(#clip0_124_4191)">
<path d="M25.2662 28.1708C22.8328 24.6289 19.8619 21.4988 16.41 18.8904C15.9856 18.561 15.3065 18.5884 14.9104 19.0003C14.5142 19.4121 14.486 20.0162 14.8538 20.4555C18.4755 24.7113 21.0786 29.5436 22.5216 34.8702C22.6631 35.337 23.0875 35.6664 23.5968 35.6664C23.6251 35.6664 23.6817 35.6664 23.71 35.6664C24.2759 35.6115 24.672 35.1722 24.7003 34.6505C24.7852 32.7561 25.0398 30.8615 25.4076 29.022C25.4925 28.7199 25.436 28.4179 25.2662 28.1708Z" fill="#1F9CB3"/>
<path d="M49.0901 0.741431C48.9203 0.357038 48.4959 0.109928 48.0715 0.109928C47.93 0.109928 47.7885 0.137385 47.647 0.192298C45.1855 1.15328 42.7804 2.36137 40.5451 3.78912C40.0641 4.09115 39.5831 4.42062 39.1304 4.72265C30.8966 10.4886 25.2661 18.9452 23.2571 28.555C22.861 30.5045 22.6064 32.5088 22.4932 34.5131V34.568C22.4932 34.6504 22.4932 34.7602 22.5215 34.8426C22.6346 35.227 22.7195 35.6114 22.8327 36.0232C22.8893 36.2978 23.0874 36.5449 23.342 36.7096L23.4269 36.7646C23.5118 36.8195 23.5967 36.8469 23.6816 36.8744L26.2281 37.6432C26.3413 37.6706 26.4544 37.6981 26.5676 37.6981C26.8223 37.6981 27.0486 37.6157 27.2467 37.4784C27.5296 37.2588 27.6994 36.9293 27.6994 36.5998V36.3801C27.6994 36.1605 27.6994 35.9134 27.6994 35.6938C27.6994 34.7053 27.7277 33.6894 27.8126 32.7009C28.6331 22.6793 33.4149 13.5362 41.3091 6.97409C41.6769 6.67207 42.0731 6.34259 42.4692 6.04057L42.4974 6.01311C44.3931 4.55791 46.4587 3.26744 48.6091 2.16918C49.1184 1.86716 49.3447 1.26311 49.0901 0.741431Z" fill="#1F9CB3"/>
<path d="M3.73424 29.1864C3.28153 29.1864 2.82881 28.9393 2.60245 28.5275C1.13114 25.7543 0.367188 22.6792 0.367188 19.5491C0.367188 8.7861 9.42141 0 20.5129 0C23.0877 0 25.6059 0.466763 28.0109 1.40029C28.6618 1.6474 28.973 2.36127 28.7183 2.99277C28.4636 3.62427 27.728 3.9263 27.0772 3.67919C24.9835 2.88295 22.7764 2.4711 20.5129 2.4711C10.8079 2.4711 2.91369 10.1315 2.91369 19.5491C2.91369 22.2948 3.56447 24.9307 4.86602 27.3743C5.17726 27.9783 4.95091 28.7197 4.32843 29.0491C4.13036 29.1315 3.9323 29.1864 3.73424 29.1864Z" fill="#1F9CB3"/>
<path d="M43.3189 20.4828H42.8662C42.951 20.4828 43.0076 20.4553 43.0925 20.4553C43.1774 20.4553 43.2623 20.4553 43.3189 20.4828Z" fill="#1F9CB3"/>
<path d="M91.1642 31.0811C91.1642 30.9713 91.1642 30.8614 91.1356 30.7791C90.9661 29.2141 90.4003 27.9236 89.4383 26.8528C88.2781 25.5898 86.7503 24.9308 84.8549 24.9308C82.9873 24.9308 81.4309 25.5624 80.1856 26.8253C78.9411 28.0884 78.3467 29.6259 78.3467 31.4655C78.3467 33.415 78.969 34.98 80.2429 36.188C81.516 37.3961 83.1282 38.0002 85.0809 38.0002C86.7782 38.0002 88.2216 37.6433 89.3818 36.8745C89.6929 36.6822 89.891 36.3528 89.891 35.9684C89.891 35.8037 89.8345 35.6114 89.778 35.4742L89.6078 35.2271C89.4096 35.0074 89.0985 34.8701 88.7874 34.8701C88.6457 34.8701 88.4762 34.8976 88.3632 34.9525C88.2781 35.0074 88.1651 35.0624 88.0521 35.1172C87.8253 35.2271 87.6272 35.3369 87.3726 35.4193C86.7217 35.6663 86.0429 35.7762 85.392 35.7762C84.2319 35.7762 83.2698 35.4467 82.5624 34.7878C81.8272 34.1288 81.4309 33.3051 81.3179 32.3441H89.8624C90.5419 32.3441 91.1356 31.7675 91.1642 31.0811ZM81.2328 30.4221C81.3179 29.5435 81.6569 28.7747 82.2799 28.1158C82.9022 27.4568 83.7512 27.1274 84.8549 27.1274C86.0143 27.1274 86.8919 27.4568 87.4856 28.1433C88.1086 28.8022 88.4197 29.571 88.4476 30.4496H81.2328V30.4221Z" fill="#1F9CB3"/>
<path d="M77.4406 26.5508C77.4406 26.6332 77.4406 26.743 77.4127 26.8254V26.8529L77.3562 27.045C77.3562 27.045 77.3562 27.045 77.3562 27.0725L74.4701 36.0508L74.3285 36.5176C74.0174 37.204 73.3099 37.6708 72.4894 37.6708C71.7254 37.6708 71.0463 37.2589 70.7068 36.6549L70.4804 35.9685L68.0754 28.5552L65.6138 36.0783L65.444 36.5176C65.1327 37.204 64.4254 37.6708 63.6049 37.6708C62.8409 37.6708 62.1618 37.2589 61.8223 36.6549L61.5959 35.941L58.7665 27.0999L58.6816 26.8254C58.6533 26.743 58.6533 26.6607 58.6533 26.5508C58.6533 25.8095 59.2758 25.2055 60.0397 25.2055C60.634 25.2055 61.115 25.5624 61.313 26.0566L61.3979 26.3037L63.6049 33.717L63.7746 34.2662L63.9444 33.7445L66.3777 26.5234L66.5192 26.1115C66.7456 25.6173 67.2549 25.2604 67.8208 25.178H68.2735C68.8394 25.2604 69.3486 25.6173 69.575 26.1115L69.7165 26.5234L72.1498 33.7445L72.3196 34.2662L72.4894 33.717L74.6962 26.3312L74.7813 26.0291C74.9794 25.5349 75.4887 25.2055 76.0544 25.2055C76.8183 25.2055 77.4406 25.8095 77.4406 26.5508Z" fill="#1F9CB3"/>
<path d="M61.3701 26.3035L61.2852 26.0564C61.3417 26.1388 61.3701 26.2211 61.3701 26.3035Z" fill="#1F9CB3"/>
<path d="M74.6963 26.3311C74.6963 26.2213 74.7535 26.1389 74.7814 26.0291L74.6963 26.3311Z" fill="#1F9CB3"/>
<path d="M66.5193 26.139L66.3779 26.5509C66.4062 26.3861 66.4628 26.2763 66.5193 26.139Z" fill="#1F9CB3"/>
<path d="M68.274 25.2055H67.8213C67.9061 25.2055 67.9627 25.178 68.0476 25.178C68.1325 25.2055 68.1891 25.2055 68.274 25.2055Z" fill="#1F9CB3"/>
<path d="M69.7167 26.5509L69.5752 26.139C69.6318 26.2763 69.6884 26.3861 69.7167 26.5509Z" fill="#1F9CB3"/>
<path d="M56.8717 21.8281V30.8888C56.8717 33.0854 56.221 34.8152 54.9194 36.1056C53.6179 37.3686 51.7221 38.0276 49.2039 38.0276C46.6857 38.0276 44.7899 37.3961 43.4884 36.1056C42.1869 34.8426 41.5361 33.1128 41.5361 30.9163V21.7732C41.621 21.0868 42.1869 20.5652 42.8942 20.4553H43.347C44.0543 20.5377 44.6202 21.0868 44.7051 21.7732V30.779C44.7051 32.1793 45.1012 33.2776 45.8934 34.0738C46.6857 34.8975 47.8175 35.2819 49.2605 35.2819C50.7035 35.2819 51.8353 34.8701 52.5992 34.0738C53.3915 33.2776 53.7593 32.1519 53.7593 30.779V21.8281C53.8442 21.1143 54.4101 20.5652 55.1458 20.4828H55.5136C56.221 20.5377 56.7869 21.1143 56.8717 21.8281Z" fill="#1F9CB3"/>
<path d="M94.5881 20.4553C93.8521 20.4553 93.2298 21.0045 93.2012 21.7183V36.3527C93.2577 37.0666 93.8521 37.6157 94.5881 37.6157C95.3234 37.6157 95.9456 37.0666 95.9742 36.3527V21.7183C95.9456 21.0319 95.3234 20.4553 94.5881 20.4553Z" fill="#1F9CB3"/>
</g>
<defs>
<clipPath id="clip0_124_4191">
<rect width="102" height="38" fill="white"/>
</clipPath>
</defs>
</svg>
